<svg xmlns="http://www.w3.org/2000/svg" version="1.1" xmlns:xlink="http://www.w3.org/1999/xlink" xmlns:svgjs="http://svgjs.dev/svgjs" width="1000" height="623" viewBox="0 0 1000 623"><g transform="matrix(1,0,0,1,-0.6060606060606233,0.2522267206477409)"><svg viewBox="0 0 396 247" data-background-color="#ffffff" preserveAspectRatio="xMidYMid meet" height="623" width="1000" xmlns="http://www.w3.org/2000/svg" xmlns:xlink="http://www.w3.org/1999/xlink"><g id="tight-bounds" transform="matrix(1,0,0,1,0.2400000000000091,-0.09999999999999432)"><svg viewBox="0 0 395.52 247.2" height="247.2" width="395.52"><g><svg></svg></g><g><svg viewBox="0 0 395.52 247.2" height="247.2" width="395.52"><g transform="matrix(1,0,0,1,85.0078659165337,47.215199999999996)"><svg viewBox="0 0 225.50426816693258 152.7696" height="152.7696" width="225.50426816693258"><g><svg viewBox="0 0 225.50426816693258 152.7696" height="152.7696" width="225.50426816693258"><g><svg viewBox="0 0 244.43135999999998 165.59190386149726" height="152.7696" width="225.50426816693258"><g><svg viewBox="0 0 244.43135999999998 165.59190386149726" height="165.59190386149726" width="244.43135999999998"><g><svg viewBox="0 0 244.43135999999998 165.59190386149726" height="165.59190386149726" width="244.43135999999998"><g><svg viewBox="0 0 244.43135999999998 114.08681753614806" height="114.08681753614806" width="244.43135999999998"><g transform="matrix(1,0,0,1,0,0)"><svg width="244.43135999999998" viewBox="-0.85 -36 86.44 40.35" height="114.08681753614806" data-palette-color="#00bd7e"><path d="M-0.85 4.35L-0.85 4.35Q-0.55 3.65 0.8 0.68 2.15-2.3 4.33-7.08 6.5-11.85 9.22-17.93 11.95-24 15-30.8L15-30.8Q15.15-31.15 15.33-31.73 15.5-32.3 15.5-32.85L15.5-32.85Q15.5-33.4 15.18-33.77 14.85-34.15 13.8-34.15L13.8-34.15Q11.7-34.15 10.33-32.73 8.95-31.3 8.28-29.2 7.6-27.1 7.6-25.05L7.6-25.05Q7.6-24.55 7.63-24.2 7.65-23.85 7.7-23.5L7.7-23.5Q6.75-23.5 6.18-24.18 5.6-24.85 5.33-25.83 5.05-26.8 5.05-27.6L5.05-27.6Q5.05-29.25 5.95-30.75 6.85-32.25 8.28-33.45 9.7-34.65 11.43-35.33 13.15-36 14.8-36L14.8-36Q16.45-36 17.57-35.08 18.7-34.15 19.28-31.75 19.85-29.35 19.85-24.8L19.85-24.8Q19.85-21.7 19.63-18.2 19.4-14.7 19.15-11.3 18.9-7.9 18.8-5.1L18.8-5.1Q19.6-8.15 21.08-11.6 22.55-15.05 24.33-18.48 26.1-21.9 27.85-24.9 29.6-27.9 31-30.1 32.4-32.3 33.05-33.3L33.05-33.3Q33.75-34.3 34.25-34.83 34.75-35.35 35.55-35.35L35.55-35.35Q36.25-35.35 37.15-35L37.15-35Q36.8-34.1 36.18-32.33 35.55-30.55 34.9-28L34.9-28Q34.1-24.95 33.3-21.08 32.5-17.2 31.83-13.2 31.15-9.2 30.75-5.68 30.35-2.15 30.35 0.25L30.35 0.25Q30.35 1.35 30.45 1.95 30.55 2.55 30.73 3.03 30.9 3.5 31.1 4.35L31.1 4.35Q29.4 4.35 28.5 3.8 27.6 3.25 27.3 2.02 27 0.8 27-1.25L27-1.25Q27-7.2 28.53-14.03 30.05-20.85 32-28.2L32-28.2Q30.55-26.35 28.98-23.53 27.4-20.7 25.83-17.43 24.25-14.15 22.83-10.88 21.4-7.6 20.3-4.8 19.2-2 18.6-0.15L18.6-0.15Q18.3-0.05 18.2 0 18.1 0.05 17.85 0.05L17.85 0.05Q16.5 0.05 16.07-1.55 15.65-3.15 15.65-6.05L15.65-6.05Q15.65-8.1 15.78-10.93 15.9-13.75 16.05-16.75 16.2-19.75 16.32-22.53 16.45-25.3 16.45-27.3L16.45-27.3Q16.45-28.3 16.43-28.95 16.4-29.6 16.35-30.1L16.35-30.1Q12.35-20.8 9.65-14.23 6.95-7.65 5.13-3.55 3.3 0.55 1.9 2.45 0.5 4.35-0.85 4.35ZM40.4 1.3L40.4 1.3Q38.45 1.3 37.5 0.08 36.55-1.15 36.55-2.9L36.55-2.9Q36.55-4.05 36.97-5.8 37.4-7.55 38.1-9.47 38.8-11.4 39.72-13.1 40.65-14.8 41.7-15.88 42.75-16.95 43.75-16.95L43.75-16.95Q44.2-16.95 44.52-16.68 44.85-16.4 44.85-15.85L44.85-15.85Q44.85-15.25 44.07-13.9 43.3-12.55 42.25-10.8 41.2-9.05 40.42-7.13 39.65-5.2 39.65-3.45L39.65-3.45Q39.65-1.65 40.25-1.05 40.85-0.45 42.1-0.45L42.1-0.45Q43.8-0.45 45.72-2.15 47.65-3.85 49.8-8.1L49.8-8.1 50.25-7.6Q48.8-3.3 46.07-1 43.35 1.3 40.4 1.3ZM46.4-21.6L46.4-21.6Q45.6-21.6 44.97-22 44.35-22.4 44.35-23.25L44.35-23.25Q44.35-24.3 45.57-25.08 46.8-25.85 48-25.85L48-25.85Q48.75-25.85 49.2-25.5 49.65-25.15 49.65-24.3L49.65-24.3Q49.65-23.35 48.62-22.48 47.6-21.6 46.4-21.6ZM65 1L65 1Q63.24 1 62.37 0.1 61.49-0.8 61.49-2.2L61.49-2.2Q61.49-3.25 61.87-4.4 62.24-5.55 62.59-6.78 62.95-8 62.95-9.15L62.95-9.15Q62.95-10.55 62.37-11.08 61.8-11.6 60.95-11.6L60.95-11.6Q59.39-11.6 57.8-10.33 56.2-9.05 54.7-7.08 53.2-5.1 51.89-3 50.59-0.9 49.59 0.75L49.59 0.75Q48.8 0.75 48.07 0.48 47.34 0.2 46.95-0.35L46.95-0.35Q46.95-0.6 47.47-1.9 47.99-3.2 48.7-5.1 49.39-7 49.95-9 50.49-11 50.49-12.65L50.49-12.65Q50.8-13 51.45-13.35 52.09-13.7 52.8-13.7L52.8-13.7Q54.14-13.7 54.14-12.4L54.14-12.4Q54.14-11.6 53.7-9.73 53.24-7.85 52.55-5.8L52.55-5.8Q53.89-7.85 55.57-9.88 57.24-11.9 59.14-13.25 61.05-14.6 62.95-14.6L62.95-14.6Q64.89-14.6 65.77-13.2 66.64-11.8 66.64-10.1L66.64-10.1Q66.64-8.55 66.14-7.23 65.64-5.9 65.12-4.67 64.59-3.45 64.59-2.2L64.59-2.2Q64.59-1.15 65.02-0.73 65.44-0.3 66.09-0.3L66.09-0.3Q67.34-0.3 68.59-1.48 69.84-2.65 71.02-4.45 72.19-6.25 73.09-8.1L73.09-8.1 73.64-7.45Q72.59-5 71.3-3.1 70-1.2 68.44-0.1 66.89 1 65 1ZM75.74 1.3L75.74 1.3Q73.79 1.3 72.84 0.08 71.89-1.15 71.89-2.9L71.89-2.9Q71.89-4.05 72.32-5.8 72.74-7.55 73.44-9.47 74.14-11.4 75.07-13.1 75.99-14.8 77.04-15.88 78.09-16.95 79.09-16.95L79.09-16.95Q79.54-16.95 79.87-16.68 80.19-16.4 80.19-15.85L80.19-15.85Q80.19-15.25 79.42-13.9 78.64-12.55 77.59-10.8 76.54-9.05 75.77-7.13 74.99-5.2 74.99-3.45L74.99-3.45Q74.99-1.65 75.59-1.05 76.19-0.45 77.44-0.45L77.44-0.45Q79.14-0.45 81.07-2.15 82.99-3.85 85.14-8.1L85.14-8.1 85.59-7.6Q84.14-3.3 81.42-1 78.69 1.3 75.74 1.3ZM81.74-21.6L81.74-21.6Q80.94-21.6 80.32-22 79.69-22.4 79.69-23.25L79.69-23.25Q79.69-24.3 80.92-25.08 82.14-25.85 83.34-25.85L83.34-25.85Q84.09-25.85 84.54-25.5 84.99-25.15 84.99-24.3L84.99-24.3Q84.99-23.35 83.97-22.48 82.94-21.6 81.74-21.6Z" opacity="1" transform="matrix(1,0,0,1,0,0)" fill="#00bd7e" class="undefined-text-0" data-fill-palette-color="primary" id="text-0"></path></svg></g></svg></g><g transform="matrix(1,0,0,1,0,141.01997707281174)"><svg viewBox="0 0 244.43135999999998 24.571926788685516" height="24.571926788685516" width="244.43135999999998"><g transform="matrix(1,0,0,1,0,0)"><svg width="244.43135999999998" viewBox="3.2499999999999996 -35.5 360.6 36.25" height="24.571926788685516" data-palette-color="#00bd7e"><path d="M20.8 0L20.2-1.55Q17.8 0.5 13.8 0.5L13.8 0.5Q11 0.5 8.6-0.55 6.2-1.6 4.73-3.85 3.25-6.1 3.25-9.45L3.25-9.45 3.25-25.15Q3.25-28.65 4.38-30.78 5.5-32.9 7.6-34.2L7.6-34.2Q9.8-35.45 13-35.45L13-35.45Q16.9-35.45 20.05-33.8L20.05-33.8 19-31Q16.3-32 13.85-32L13.85-32Q6.85-32 6.85-25.6L6.85-25.6 6.85-9.35Q6.85-6.3 8.75-4.67 10.65-3.05 13.75-3.05L13.75-3.05Q16.65-3.05 18.48-4.7 20.3-6.35 20.3-9.3L20.3-9.3 20.3-11.5 17.15-11.5 15.95-15 23.8-15 23.8 0 20.8 0ZM45.35-1.75Q43.55-0.6 41.25 0 38.95 0.6 36.65 0.6L36.65 0.6Q32.95 0.6 30.78-1.23 28.6-3.05 28.6-6.7L28.6-6.7 28.6-16.95Q28.6-21 31.13-23.25 33.65-25.5 37.8-25.5L37.8-25.5Q41.95-25.5 44.28-23.28 46.6-21.05 46.6-17.1L46.6-17.1 46.6-10.25 32.2-9.5 32.2-6.9Q32.2-4.8 33.5-3.75 34.8-2.7 37.05-2.7L37.05-2.7Q40.3-2.7 44-4.7L44-4.7 45.35-1.75ZM42.95-17.3Q42.95-19.95 41.3-21.08 39.65-22.2 37.75-22.2L37.75-22.2Q35.25-22.2 33.73-20.85 32.2-19.5 32.2-16.9L32.2-16.9 32.2-12.9 42.95-13.45 42.95-17.3ZM53.85-6.5Q54.05-4.65 55.7-3.63 57.35-2.6 59.6-2.6L59.6-2.6Q61.65-2.6 63.23-3.58 64.8-4.55 64.8-6.5L64.8-6.5Q64.8-7.85 64.03-8.75 63.25-9.65 62.08-10.18 60.9-10.7 58.85-11.4L58.85-11.4Q56.4-12.25 54.93-12.93 53.45-13.6 52.33-14.9 51.2-16.2 50.95-18.25L50.95-18.25 50.9-18.85Q50.9-20.5 51.83-22.08 52.75-23.65 54.68-24.65 56.6-25.65 59.5-25.65L59.5-25.65Q61.1-25.65 62.33-25.33 63.55-25 64.25-24.65 64.95-24.3 65.1-24.2L65.1-24.2 63.95-21.05Q63.8-21.15 63.28-21.45 62.75-21.75 61.75-22.03 60.75-22.3 59.5-22.3L59.5-22.3Q57.15-22.3 55.8-21.25 54.45-20.2 54.65-18.4L54.65-18.4Q54.8-17.05 56.13-16.28 57.45-15.5 60.15-14.55L60.15-14.55Q62.8-13.65 64.48-12.83 66.15-12 67.33-10.48 68.5-8.95 68.5-6.5L68.5-6.5Q68.5-3.4 66.25-1.33 64 0.75 59.6 0.75L59.6 0.75Q56.75 0.75 54.68-0.23 52.6-1.2 51.53-2.8 50.45-4.4 50.35-6.35L50.35-6.35 53.85-6.5ZM78.3 0.65Q75.1 0.05 73.7-1.75 72.3-3.55 72.3-6.6L72.3-6.6 72.3-35 75.95-35 75.95-25.05 81.55-25.05 80.35-21.65 75.95-21.65 75.95-6.6Q75.95-3.05 79.35-2.15L79.35-2.15 78.3 0.65ZM88.7-31.4Q87.85-31.4 87.23-32.02 86.6-32.65 86.6-33.45L86.6-33.45Q86.6-34.25 87.23-34.88 87.85-35.5 88.7-35.5L88.7-35.5Q89.5-35.5 90.1-34.9 90.7-34.3 90.7-33.45L90.7-33.45Q90.7-32.6 90.1-32 89.5-31.4 88.7-31.4L88.7-31.4ZM86.8 0L86.8-25.05 90.4-25.05 90.4 0 86.8 0ZM117.25-9.2Q117.25-5 114.95-2.25 112.65 0.5 108 0.5L108 0.5Q103.35 0.5 100.98-2.27 98.6-5.05 98.6-9.2L98.6-9.2 98.6-15.8Q98.6-20.55 101.03-23.08 103.45-25.6 108-25.6L108-25.6Q112.35-25.6 114.8-22.98 117.25-20.35 117.25-15.8L117.25-15.8 117.25-9.2ZM113.65-15.8Q113.65-22.15 108-22.15L108-22.15Q105.35-22.15 103.78-20.65 102.2-19.15 102.2-15.8L102.2-15.8 102.2-8.7Q102.2-6 103.78-4.42 105.35-2.85 108-2.85L108-2.85Q110.65-2.85 112.15-4.42 113.65-6 113.65-8.7L113.65-8.7 113.65-15.8ZM137.05 0L137.05-16.75Q137.05-19.45 135.43-20.78 133.8-22.1 131.3-22.1L131.3-22.1Q129.9-22.1 128.45-21.73 127-21.35 125.8-20.65L125.8-20.65 125.8 0 122.2 0 122.2-25.05 125.6-25.05 125.65-23.75Q126.8-24.55 128.43-25 130.05-25.45 131.85-25.45L131.85-25.45Q134.45-25.45 136.4-24.55L136.4-24.55Q138.4-23.65 139.53-21.85 140.65-20.05 140.65-17.3L140.65-17.3 140.65 0 137.05 0ZM162.5-1.75Q160.7-0.6 158.4 0 156.1 0.6 153.8 0.6L153.8 0.6Q150.1 0.6 147.93-1.23 145.75-3.05 145.75-6.7L145.75-6.7 145.75-16.95Q145.75-21 148.28-23.25 150.8-25.5 154.95-25.5L154.95-25.5Q159.1-25.5 161.43-23.28 163.75-21.05 163.75-17.1L163.75-17.1 163.75-10.25 149.35-9.5 149.35-6.9Q149.35-4.8 150.65-3.75 151.95-2.7 154.2-2.7L154.2-2.7Q157.45-2.7 161.15-4.7L161.15-4.7 162.5-1.75ZM160.1-17.3Q160.1-19.95 158.45-21.08 156.8-22.2 154.9-22.2L154.9-22.2Q152.4-22.2 150.88-20.85 149.35-19.5 149.35-16.9L149.35-16.9 149.35-12.9 160.1-13.45 160.1-17.3ZM185.2-9.15Q185.35-7.55 186.38-6.13 187.4-4.7 189.15-3.83 190.9-2.95 193.2-2.95L193.2-2.95Q196.75-2.95 199.03-4.58 201.3-6.2 201.3-9.3L201.3-9.3Q201.3-11.5 200.1-12.98 198.9-14.45 197.15-15.33 195.4-16.2 192.35-17.35L192.35-17.35Q189.1-18.55 187.1-19.58 185.1-20.6 183.72-22.38 182.35-24.15 182.35-26.9L182.35-26.9Q182.35-29.1 183.6-31.08 184.85-33.05 187.38-34.27 189.9-35.5 193.6-35.5L193.6-35.5Q196.05-35.5 197.65-35.15 199.25-34.8 200.9-34L200.9-34 199.8-30.6Q196.7-31.95 193.7-31.95L193.7-31.95Q190.15-31.95 188.13-30.53 186.1-29.1 186.15-26.65L186.15-26.65Q186.15-25.15 187.2-24.08 188.25-23 189.8-22.25 191.35-21.5 194-20.55L194-20.55Q197.55-19.25 199.8-18.07 202.05-16.9 203.63-14.83 205.2-12.75 205.2-9.65L205.2-9.65Q205.2-5.05 202.28-2.25 199.35 0.55 193.25 0.55L193.25 0.55Q189.55 0.55 186.92-0.83 184.3-2.2 182.92-4.38 181.55-6.55 181.45-8.9L181.45-8.9 185.2-9.15ZM225.55-0.3Q222.45 0.5 219.55 0.5L219.55 0.5Q216.85 0.5 215.05-0.1L215.05-0.1Q212.1-1.1 210.78-3.18 209.45-5.25 209.45-9L209.45-9 209.45-15.4Q209.45-20.35 212.05-22.93 214.65-25.5 218.75-25.5L218.75-25.5Q222-25.5 225.45-23.9L225.45-23.9 224.45-21.05Q221.6-22.15 219.35-22.15L219.35-22.15Q216.5-22.15 214.78-20.53 213.05-18.9 213.05-15.7L213.05-15.7 213.05-8.45Q213.05-5.5 214.97-4.17 216.9-2.85 219.9-2.85L219.9-2.85Q222.25-2.85 224.7-3.5L224.7-3.5 225.55-0.3ZM247.9 0Q242.5 0.55 240.1 0.55L240.1 0.55Q234.85 0.55 231.75-1.4 228.65-3.35 228.65-8.45L228.65-8.45 228.65-12.6Q228.65-17.55 232.1-19.25L232.1-19.25Q233.75-20.05 236.15-20.05L236.15-20.05Q238.35-20.05 240.6-19.38 242.85-18.7 244.3-17.65L244.3-17.65Q244.3-22.8 237.25-22.8L237.25-22.8 237.5-25.45Q242.3-25.45 244.58-23.93 246.85-22.4 247.38-20.3 247.9-18.2 247.9-14.9L247.9-14.9 247.9 0ZM244.3-14.4Q242.55-15.25 240.45-15.93 238.35-16.6 236.6-16.6L236.6-16.6Q232.25-16.6 232.25-12.3L232.25-12.3 232.25-8.4Q232.25-2.7 240.05-2.7L240.05-2.7Q241.6-2.7 244.3-3.05L244.3-3.05 244.3-14.4ZM253.6-17.3Q253.6-22.55 257.85-24.5L257.85-24.5Q259.9-25.45 262.65-25.45L262.65-25.45Q264.35-25.45 265.9-25.08 267.45-24.7 268.45-24.05L268.45-24.05 268.45-35 272.05-35 272.05 0 269.3 0.25Q266.05 0.6 264.2 0.6L264.2 0.6Q262.35 0.6 260.73 0.25 259.1-0.1 257.5-0.9L257.5-0.9Q255.7-1.8 254.65-3.55 253.6-5.3 253.6-7.85L253.6-7.85 253.6-17.3ZM268.45-20.6Q267.25-21.25 265.78-21.65 264.3-22.05 262.9-22.05L262.9-22.05Q260.35-22.05 258.75-20.75 257.15-19.45 257.15-16.6L257.15-16.6 257.15-7.7Q257.15-5.1 259.1-3.93 261.05-2.75 264.25-2.75L264.25-2.75Q266.15-2.75 268.45-3.15L268.45-3.15 268.45-20.6ZM292.6-1.75Q290.8-0.6 288.5 0 286.2 0.6 283.9 0.6L283.9 0.6Q280.2 0.6 278.03-1.23 275.85-3.05 275.85-6.7L275.85-6.7 275.85-16.95Q275.85-21 278.38-23.25 280.9-25.5 285.05-25.5L285.05-25.5Q289.2-25.5 291.53-23.28 293.85-21.05 293.85-17.1L293.85-17.1 293.85-10.25 279.45-9.5 279.45-6.9Q279.45-4.8 280.75-3.75 282.05-2.7 284.3-2.7L284.3-2.7Q287.55-2.7 291.25-4.7L291.25-4.7 292.6-1.75ZM290.2-17.3Q290.2-19.95 288.55-21.08 286.9-22.2 285-22.2L285-22.2Q282.5-22.2 280.98-20.85 279.45-19.5 279.45-16.9L279.45-16.9 279.45-12.9 290.2-13.45 290.2-17.3ZM313.85 0L313.85-16.75Q313.85-19.45 312.23-20.78 310.6-22.1 308.1-22.1L308.1-22.1Q306.7-22.1 305.25-21.73 303.8-21.35 302.6-20.65L302.6-20.65 302.6 0 299 0 299-25.05 302.4-25.05 302.45-23.75Q303.6-24.55 305.23-25 306.85-25.45 308.65-25.45L308.65-25.45Q311.25-25.45 313.2-24.55L313.2-24.55Q315.2-23.65 316.32-21.85 317.45-20.05 317.45-17.3L317.45-17.3 317.45 0 313.85 0ZM324.7 0L324.7-3.3 337.45-21.7 325.15-21.7 325.15-25.05 342.15-25.05 342.15-21.8 329.3-3.35 343.05-3.35 343.05 0 324.7 0ZM362.6-1.75Q360.8-0.6 358.5 0 356.2 0.6 353.9 0.6L353.9 0.6Q350.2 0.6 348.03-1.23 345.85-3.05 345.85-6.7L345.85-6.7 345.85-16.95Q345.85-21 348.38-23.25 350.9-25.5 355.05-25.5L355.05-25.5Q359.2-25.5 361.53-23.28 363.85-21.05 363.85-17.1L363.85-17.1 363.85-10.25 349.45-9.5 349.45-6.9Q349.45-4.8 350.75-3.75 352.05-2.7 354.3-2.7L354.3-2.7Q357.55-2.7 361.25-4.7L361.25-4.7 362.6-1.75ZM360.2-17.3Q360.2-19.95 358.55-21.08 356.9-22.2 355-22.2L355-22.2Q352.5-22.2 350.98-20.85 349.45-19.5 349.45-16.9L349.45-16.9 349.45-12.9 360.2-13.45 360.2-17.3Z" opacity="1" transform="matrix(1,0,0,1,0,0)" fill="#00bd7e" class="undefined-text-1" data-fill-palette-color="secondary" id="text-1"></path></svg></g></svg></g></svg></g></svg></g></svg></g></svg></g></svg></g><g><path d="M236.352 0c68.262 0 123.6 55.338 123.6 123.6 0 68.262-55.338 123.6-123.6 123.6-33.408 0-63.72-13.254-85.965-34.791h6.974c20.998 18.69 48.669 30.045 78.991 30.045 65.641 0 118.854-53.213 118.854-118.854 0-65.641-53.213-118.854-118.854-118.854-30.323 0-57.993 11.355-78.991 30.045l-6.974 0c22.245-21.537 52.557-34.791 85.965-34.791z" fill="#00bd7e" stroke="transparent" data-fill-palette-color="tertiary"></path></g></svg></g><defs></defs></svg><rect width="395.52" height="247.2" fill="none" stroke="none" visibility="hidden"></rect></g></svg></g></svg>